<?xml version="1.0" encoding="UTF-8"?>
<svg width="14px" height="16px" viewBox="0 0 14 16" version="1.1" xmlns="http://www.w3.org/2000/svg" xmlns:xlink="http://www.w3.org/1999/xlink">
    <!-- Generator: sketchtool 60.1 (101010) - https://sketch.com -->
    <title>BDA7B0A9-0B23-4A3B-B9FC-8F8C14B92465</title>
    <desc>Created with sketchtool.</desc>
    <g id="Research" stroke="none" stroke-width="1" fill="none" fill-rule="evenodd">
        <g id="2.0-Projects" transform="translate(-1083.000000, -256.000000)" fill="#F8465C" fill-rule="nonzero">
            <g id="delete-(1)" transform="translate(1083.000000, 256.000000)">
                <path d="M8.90694974,5.82067757 C8.69616433,5.82067757 8.5253298,5.98802572 8.5253298,6.19450935 L8.5253298,13.2599299 C8.5253298,13.4662675 8.69616433,13.6337617 8.90694974,13.6337617 C9.11773511,13.6337617 9.28856967,13.4662675 9.28856967,13.2599299 L9.28856967,6.19450935 C9.28856967,5.98802572 9.11773511,5.82067757 8.90694974,5.82067757 Z" id="Path"></path>
                <path d="M4.40383447,5.82067757 C4.19304907,5.82067757 4.02221453,5.98802572 4.02221453,6.19450935 L4.02221453,13.2599299 C4.02221453,13.4662675 4.19304907,13.6337617 4.40383447,13.6337617 C4.61461984,13.6337617 4.78545441,13.4662675 4.78545441,13.2599299 L4.78545441,6.19450935 C4.78545441,5.98802572 4.61461984,5.82067757 4.40383447,5.82067757 Z" id="Path"></path>
                <path d="M1.12190301,4.78957361 L1.12190301,14 C1.12190301,14.5443925 1.32568206,15.0556367 1.68166191,15.4224591 C2.03600198,15.7903037 2.52912653,15.9991238 3.04520785,16 L10.2655763,16 C10.7818067,15.9991238 11.2749313,15.7903037 11.6291223,15.4224591 C11.9851021,15.0556367 12.1888812,14.5443925 12.1888812,14 L12.1888812,4.78957361 C12.8965178,4.60557828 13.355058,3.93589368 13.2603984,3.2245911 C13.1655897,2.51343458 12.5470971,1.98145443 11.8148638,1.98130841 L9.86099958,1.98130841 L9.86099958,1.51401869 C9.86323561,1.12105723 9.70462482,0.743720785 9.42064593,0.466121495 C9.13666704,0.188668224 8.75087314,0.0341705607 8.34972498,0.0373340591 L4.96105919,0.0373340591 C4.55991104,0.0341705607 4.17411713,0.188668224 3.89013824,0.466121495 C3.60615935,0.743720785 3.44754856,1.12105723 3.44978463,1.51401869 L3.44978463,1.98130841 L1.49592035,1.98130841 C0.763687096,1.98145443 0.14519448,2.51343458 0.0503857383,3.2245911 C-0.044273866,3.93589368 0.41426634,4.60557828 1.12190301,4.78957361 Z M10.2655763,15.2523364 L3.04520785,15.2523364 C2.3927272,15.2523364 1.88514288,14.703271 1.88514288,14 L1.88514288,4.82242991 L11.4256413,4.82242991 L11.4256413,14 C11.4256413,14.703271 10.918057,15.2523364 10.2655763,15.2523364 Z M4.2130245,1.51401869 C4.21049028,1.31936333 4.28860311,1.13200935 4.42962362,0.994596972 C4.57049504,0.857184598 4.76219941,0.781688075 4.96105919,0.785046729 L8.34972498,0.785046729 C8.54858473,0.781688075 8.74028914,0.857184598 8.88116055,0.994596972 C9.02218106,1.13186333 9.10029389,1.31936333 9.09775971,1.51401869 L9.09775971,1.98130841 L4.2130245,1.98130841 L4.2130245,1.51401869 Z M1.49592035,2.72897196 L11.8148638,2.72897196 C12.1942477,2.72897196 12.5017797,3.03022781 12.5017797,3.40186916 C12.5017797,3.7735105 12.1942477,4.07476636 11.8148638,4.07476636 L1.49592035,4.07476636 C1.11653644,4.07476636 0.809004463,3.7735105 0.809004463,3.40186916 C0.809004463,3.03022781 1.11653644,2.72897196 1.49592035,2.72897196 Z" id="Shape"></path>
                <path d="M6.6553921,5.82067757 C6.4446067,5.82067757 6.27377217,5.98802572 6.27377217,6.19450935 L6.27377217,13.2599299 C6.27377217,13.4662675 6.4446067,13.6337617 6.6553921,13.6337617 C6.86617747,13.6337617 7.03701204,13.4662675 7.03701204,13.2599299 L7.03701204,6.19450935 C7.03701204,5.98802572 6.86617747,5.82067757 6.6553921,5.82067757 Z" id="Path"></path>
            </g>
        </g>
    </g>
</svg>